<?xml version="1.0" standalone="no"?>
<!DOCTYPE svg PUBLIC "-//W3C//DTD SVG 20010904//EN"
 "http://www.w3.org/TR/2001/REC-SVG-20010904/DTD/svg10.dtd">
<svg version="1.0" xmlns="http://www.w3.org/2000/svg"
 width="700.000000pt" height="700.000000pt" viewBox="0 0 700.000000 700.000000"
 preserveAspectRatio="xMidYMid meet">
<metadata>
Created by potrace 1.14, written by Peter Selinger 2001-2017
</metadata>
<g transform="translate(0.000000,700.000000) scale(0.100000,-0.100000)"
fill="#000000" stroke="none">
<path d="M1139 5941 c-1 -3 -2 -1105 -3 -2448 l-1 -2443 2362 0 2363 0 -2
2447 -3 2448 -320 0 -320 0 -3 -2137 c-1 -1176 -5 -2139 -10 -2139 -19 -3
-1338 -5 -1348 -2 -7 3 -10 647 -9 2126 0 1167 -1 2129 -3 2138 -3 14 -43 15
-348 15 -340 0 -345 0 -349 -20 -2 -12 -3 -972 -3 -2134 1 -1162 -2 -2115 -6
-2119 -12 -12 -1316 -10 -1317 2 0 6 -1 968 -2 2140 l-2 2130 -337 1 c-186 0
-339 -2 -339 -5z"/>
</g>
</svg>
